 <svg width="230" height="114" viewBox="0 0 230 114" fill="none" xmlns="http://www.w3.org/2000/svg">
            <g clip-path="url(#clip0_5657_36837)">
                <path d="M25 114V-.366569e-5" stroke="url(#paint0_linear_5657_36837)" stroke-opacity=".4"></path>
                <path d="M205 114V-.366569e-5" stroke="url(#paint1_linear_5657_36837)" stroke-opacity=".4"></path>
                <path d="M230 20H-.411272e-5" stroke="url(#paint2_linear_5657_36837)" stroke-opacity=".4"></path>
                <path d="M230 94H-.411272e-5" stroke="url(#paint3_linear_5657_36837)" stroke-opacity=".4"></path>
                <rect x="25" y="20" width="180" height="74" rx="8" fill="#76717f" fill-opacity=".06"></rect>
                <rect x="39" y="35" width="80" height="10" rx="5" fill="var(--color-primary)"></rect>
                <path
                    d="M182.167 38.5417H178.5C177.994 38.5417 177.583 38.1126 177.583 37.5833v-2.875C177.583 34.1791 177.994 33.75 178.5 33.75h2.75C181.756 33.75 182.167 34.1791 182.167 34.7083v5.75C182.167 43.0142 180.945 44.6108 178.5 45.25"
                    stroke="var(--color-primary)"
                    stroke-width="2"
                    stroke-linecap="round"
                    stroke-linejoin="round"
                ></path>
                <path
                    d="M190.417 38.5417H186.75C186.244 38.5417 185.833 38.1126 185.833 37.5833v-2.875C185.833 34.1791 186.244 33.75 186.75 33.75h2.75C190.006 33.75 190.417 34.1791 190.417 34.7083v5.75C190.417 43.0142 189.195 44.6108 186.75 45.25"
                    stroke="var(--color-primary)"
                    stroke-width="2"
                    stroke-linecap="round"
                    stroke-linejoin="round"
                ></path>
                <rect x="39" y="58" width="143" height="8" rx="4" fill="#76717f" fill-opacity=".2"></rect>
                <rect x="39" y="72" width="100" height="8" rx="4" fill="#76717f" fill-opacity=".2"></rect>
            </g>
            <defs>
                <linearGradient id="paint0_linear_5657_36837" x1="25.5" y1=".611218e-5" x2="25.4847" y2="114" gradientUnits="userSpaceOnUse">
                    <stop stop-color="#76717f" stop-opacity="0"></stop>
                    <stop offset=".245" stop-color="#3f404d" stop-opacity=".5"></stop>
                    <stop offset=".75" stop-color="#3f404d" stop-opacity=".5"></stop>
                    <stop offset="1" stop-color="#76717f" stop-opacity="0"></stop>
                </linearGradient>
                <linearGradient id="paint1_linear_5657_36837" x1="205.5" y1=".611218e-5" x2="205.485" y2="114" gradientUnits="userSpaceOnUse">
                    <stop stop-color="#76717f" stop-opacity="0"></stop>
                    <stop offset=".245" stop-color="#3f404d" stop-opacity=".5"></stop>
                    <stop offset=".75" stop-color="#3f404d" stop-opacity=".5"></stop>
                    <stop offset="1" stop-color="#76717f" stop-opacity="0"></stop>
                </linearGradient>
                <linearGradient id="paint2_linear_5657_36837" x1=".122952e-4" y1="19.5" x2="230" y2="19.5624" gradientUnits="userSpaceOnUse">
                    <stop stop-color="#76717f" stop-opacity="0"></stop>
                    <stop offset=".245" stop-color="#3f404d" stop-opacity=".5"></stop>
                    <stop offset=".75" stop-color="#3f404d" stop-opacity=".5"></stop>
                    <stop offset="1" stop-color="#76717f" stop-opacity="0"></stop>
                </linearGradient>
                <linearGradient id="paint3_linear_5657_36837" x1=".122952e-4" y1="93.5" x2="230" y2="93.5624" gradientUnits="userSpaceOnUse">
                    <stop stop-color="#76717f" stop-opacity="0"></stop>
                    <stop offset=".245" stop-color="#3f404d" stop-opacity=".5"></stop>
                    <stop offset=".75" stop-color="#3f404d" stop-opacity=".5"></stop>
                    <stop offset="1" stop-color="#76717f" stop-opacity="0"></stop>
                </linearGradient>
                <clipPath id="clip0_5657_36837"><rect width="230" height="114" fill="#fff"></rect></clipPath>
            </defs>
        </svg>