<svg width="230" height="114" viewBox="0 0 230 114" fill="none" xmlns="http://www.w3.org/2000/svg"><g clip-path="url(#clip0_5657_36940)"><path d="M25 114V-.366569e-5" stroke="url(#paint0_linear_5657_36940)" stroke-opacity=".4"></path><path d="M205 114V-.366569e-5" stroke="url(#paint1_linear_5657_36940)" stroke-opacity=".4"></path><path d="M230 20H-.411272e-5" stroke="url(#paint2_linear_5657_36940)" stroke-opacity=".4"></path><path d="M230 94H-.411272e-5" stroke="url(#paint3_linear_5657_36940)" stroke-opacity=".4"></path><rect x="25" y="20" width="180" height="74" rx="8" fill="#76717f" fill-opacity=".06"></rect><path d="M96.6172 64V51.1504H99.3418V61.75h5.2122V64H96.6172zM106.47 51.6338C106.47 50.7607 106.956 50.3242 107.929 50.3242 108.901 50.3242 109.388 50.7607 109.388 51.6338 109.388 52.0498 109.265 52.375 109.019 52.6094 108.778 52.8379 108.415 52.9521 107.929 52.9521 106.956 52.9521 106.47 52.5127 106.47 51.6338zM109.265 64h-2.681V54.1738h2.681V64zm11.891.0H118.476V58.2607c0-.7089-.126000000000005-1.2392-.378-1.5908C117.846 56.3125 117.444 56.1338 116.894 56.1338 116.144 56.1338 115.602 56.3857 115.268 56.8896 114.934 57.3877 114.767 58.2168 114.767 59.377V64h-2.681V54.1738h2.048L114.494 55.4307H114.644C114.942 54.9561 115.353 54.5986 115.874 54.3584 116.401 54.1123 116.999 53.9893 117.667 53.9893 118.81 53.9893 119.677 54.2998 120.269 54.9209 120.86 55.5361 121.156 56.4268 121.156 57.5928V64zM126.491 58.6562l1.169-1.4941 2.751-2.9883h3.024L129.532 58.4365 133.672 64H130.578l-2.83-3.9814L126.597 60.9414V64h-2.681V50.3242h2.681v6.0996L126.456 58.6562H126.491z" fill="var(--color-primary)"></path><path d="M95 65.8018h38.672v.8964H95v-.8964z" fill="var(--color-primary)"></path></g><defs><linearGradient id="paint0_linear_5657_36940" x1="25.5" y1=".611218e-5" x2="25.4847" y2="114" gradientUnits="userSpaceOnUse"><stop stop-color="#76717f" stop-opacity="0"></stop><stop offset=".245" stop-color="#3f404d" stop-opacity=".5"></stop><stop offset=".75" stop-color="#3f404d" stop-opacity=".5"></stop><stop offset="1" stop-color="#76717f" stop-opacity="0"></stop></linearGradient><linearGradient id="paint1_linear_5657_36940" x1="205.5" y1=".611218e-5" x2="205.485" y2="114" gradientUnits="userSpaceOnUse"><stop stop-color="#76717f" stop-opacity="0"></stop><stop offset=".245" stop-color="#3f404d" stop-opacity=".5"></stop><stop offset=".75" stop-color="#3f404d" stop-opacity=".5"></stop><stop offset="1" stop-color="#76717f" stop-opacity="0"></stop></linearGradient><linearGradient id="paint2_linear_5657_36940" x1=".122952e-4" y1="19.5" x2="230" y2="19.5624" gradientUnits="userSpaceOnUse"><stop stop-color="#76717f" stop-opacity="0"></stop><stop offset=".245" stop-color="#3f404d" stop-opacity=".5"></stop><stop offset=".75" stop-color="#3f404d" stop-opacity=".5"></stop><stop offset="1" stop-color="#76717f" stop-opacity="0"></stop></linearGradient><linearGradient id="paint3_linear_5657_36940" x1=".122952e-4" y1="93.5" x2="230" y2="93.5624" gradientUnits="userSpaceOnUse"><stop stop-color="#76717f" stop-opacity="0"></stop><stop offset=".245" stop-color="#3f404d" stop-opacity=".5"></stop><stop offset=".75" stop-color="#3f404d" stop-opacity=".5"></stop><stop offset="1" stop-color="#76717f" stop-opacity="0"></stop></linearGradient><clipPath id="clip0_5657_36940"><rect width="230" height="114" fill="#fff"></rect></clipPath></defs></svg>