<svg width="226" height="182" viewBox="0 0 226 182" fill="none" xmlns="http://www.w3.org/2000/svg"><g clip-path="url(#clip0_5657_36971)"><path d="M23 182V.77486e-5" stroke="url(#paint0_linear_5657_36971)" stroke-opacity=".4"></path><path d="M203 182V.77486e-5" stroke="url(#paint1_linear_5657_36971)" stroke-opacity=".4"></path><path d="M226 21H.727177e-5" stroke="url(#paint2_linear_5657_36971)" stroke-opacity=".4"></path><path d="M226 161H.727177e-5" stroke="url(#paint3_linear_5657_36971)" stroke-opacity=".4"></path><rect x="23" y="21" width="180" height="140" rx="8" fill="#76717f" fill-opacity=".06"></rect><rect x="38" y="38" width="124" height="10" rx="5" fill="#76717f" fill-opacity=".2"></rect><rect x="23" y="56" width="180" height="22" fill="var(--color-primary)" fill-opacity=".1"></rect><rect x="38" y="62" width="87" height="10" rx="5" fill="var(--color-primary)"></rect><rect x="180" y="62" width="10" height="10" rx="2" fill="var(--color-primary)"></rect><rect x="38" y="86" width="105" height="10" rx="5" fill="#76717f" fill-opacity=".2"></rect><rect x="38" y="110" width="50" height="10" rx="5" fill="#76717f" fill-opacity=".2"></rect><rect x="38" y="134" width="93" height="10" rx="5" fill="#76717f" fill-opacity=".2"></rect></g><defs><linearGradient id="paint0_linear_5657_36971" x1="23.5" y1=".975319e-5" x2="23.4609" y2="182" gradientUnits="userSpaceOnUse"><stop stop-color="#76717f" stop-opacity="0"></stop><stop offset=".245" stop-color="#3f404d" stop-opacity=".5"></stop><stop offset=".75" stop-color="#3f404d" stop-opacity=".5"></stop><stop offset="1" stop-color="#76717f" stop-opacity="0"></stop></linearGradient><linearGradient id="paint1_linear_5657_36971" x1="203.5" y1=".975319e-5" x2="203.461" y2="182" gradientUnits="userSpaceOnUse"><stop stop-color="#76717f" stop-opacity="0"></stop><stop offset=".245" stop-color="#3f404d" stop-opacity=".5"></stop><stop offset=".75" stop-color="#3f404d" stop-opacity=".5"></stop><stop offset="1" stop-color="#76717f" stop-opacity="0"></stop></linearGradient><linearGradient id="paint2_linear_5657_36971" x1=".120813e-4" y1="20.5" x2="226" y2="20.5603" gradientUnits="userSpaceOnUse"><stop stop-color="#76717f" stop-opacity="0"></stop><stop offset=".245" stop-color="#3f404d" stop-opacity=".5"></stop><stop offset=".75" stop-color="#3f404d" stop-opacity=".5"></stop><stop offset="1" stop-color="#76717f" stop-opacity="0"></stop></linearGradient><linearGradient id="paint3_linear_5657_36971" x1=".120813e-4" y1="160.5" x2="226" y2="160.56" gradientUnits="userSpaceOnUse"><stop stop-color="#76717f" stop-opacity="0"></stop><stop offset=".245" stop-color="#3f404d" stop-opacity=".5"></stop><stop offset=".75" stop-color="#3f404d" stop-opacity=".5"></stop><stop offset="1" stop-color="#76717f" stop-opacity="0"></stop></linearGradient><clipPath id="clip0_5657_36971"><rect width="226" height="182" fill="#fff"></rect></clipPath></defs></svg>